{"title":"Crazy Eights 2006 DVDRip XviD - NoZGT","uid":7014184,"size":1022946568,"categoryP":"video","categoryS":"movies","magnet":"?xt=urn:btih:144fbf92c12131bc702bfa7eb16a9c5c0cfc37d6&amp;dn=Crazy+Eights+2006+DVDRip+XviD+-+NoZGT&amp;tr=udp%3A%2F%2Ftracker.openbittorrent.com%3A80&amp;tr=udp%3A%2F%2Fopen.demonii.com%3A1337&amp;tr=udp%3A%2F%2Ftracker.coppersurfer.tk%3A6969&amp;tr=udp%3A%2F%2Fexodus.desync.com%3A6969","seeders":0,"leechers":0,"uploader":"TvTeam","files":5,"time":1328590993,"description":". \n &lt;a href=&quot;\nhttp://www.torrenting.com&quot; rel=&quot;nofollow&quot; target=&quot;_NEW&quot;&gt;\nhttp://www.torrenting.com&lt;/a&gt;          :     Once &amp; For all ;)\n\n\n               www . Torrenting . Com \n\n(((((((((((((= Enjoy No RAR releases =))))))))))))))))))))\n\n\n...................................NFO:....................................\n\n.Crazy Eights 2006 DVDRip XviD - NoZGT\n\nCircumstance brings six childhood friends together to face their past, and a secret they share\n &lt;a href=&quot;\nhttp://www.imdb.com/title/tt0470993/&quot; rel=&quot;nofollow&quot; target=&quot;_NEW&quot;&gt;\nhttp://www.imdb.com/title/tt0470993/&lt;/a&gt;\n\nFormat                           : AVI\nFormat/Info                      : Audio Video Interleave\nFile size                        : 965 MiB\nDuration                         : 1h 20mn\nOverall bit rate                 : 1 684 Kbps\n\nVideo\nID                               : 0\nFormat                           : MPEG-4 Visual\nFormat profile                   : Advanced Simple@L5\nFormat settings, BVOP            : No\nFormat settings, QPel            : No\nFormat settings, GMC             : No warppoints\nFormat settings, Matrix          : Default (MPEG)\nCodec ID                         : XVID\nCodec ID/Hint                    : XviD\nDuration                         : 1h 20mn\nBit rate                         : 1 483 Kbps\nWidth                            : 852 pixels\nHeight                           : 480 pixels\nDisplay aspect ratio             : 16:9\nFrame rate                       : 29.970 fps\nColor space                      : YUV\nChroma subsampling               : 4:2:0\nBit depth                        : 8 bits\nScan type                        : Progressive\nBits/(Pixel*Frame)               : 0.121\nStream size                      : 850 MiB (88%)\nWriting library                  : XviD 62\n\nAudio\nID                               : 1\nFormat                           : MPEG Audio\nFormat version                   : Version 1\nFormat profile                   : Layer 3\nCodec ID                         : 55\nCodec ID/Hint                    : MP3\nDuration                         : 1h 20mn\nBit rate mode                    : Constant\nBit rate                         : 192 Kbps\nChannel(s)                       : 2 channels\nSampling rate                    : 44.1 KHz\nStream size                      : 110 MiB (11%)\nAlignment                        : Split accross interleaves\nInterleave, duration             : 67 ms (2.00 video frames)\nWriting library                  : LAMELAME_MAJOR_VERSI","torrent":{"xt":"urn:btih:144fbf92c12131bc702bfa7eb16a9c5c0cfc37d6","amp;dn":"Crazy+Eights+2006+DVDRip+XviD+-+NoZGT","amp;tr":["udp%3A%2F%2Ftracker.openbittorrent.com%3A80","udp%3A%2F%2Fopen.demonii.com%3A1337","udp%3A%2F%2Ftracker.coppersurfer.tk%3A6969","udp%3A%2F%2Fexodus.desync.com%3A6969"],"infoHash":"144fbf92c12131bc702bfa7eb16a9c5c0cfc37d6","infoHashBuffer":{"type":"Buffer","data":[20,79,191,146,193,33,49,188,112,43,250,126,177,106,156,92,12,252,55,214]},"announce":[],"urlList":[]}}